<svg xmlns="http://www.w3.org/2000/svg" xmlns:xlink="http://www.w3.org/1999/xlink" width="500" zoomAndPan="magnify" viewBox="0 0 375 374.999991" height="500" preserveAspectRatio="xMidYMid meet" version="1.0"><defs><g/><clipPath id="2e6b4d52bc"><path d="M 105.832031 121 L 222.082031 121 L 222.082031 237.535156 L 105.832031 237.535156 Z M 105.832031 121 " clip-rule="nonzero"/></clipPath><clipPath id="48006eb254"><path d="M 162 149 L 166 149 L 166 237.535156 L 162 237.535156 Z M 162 149 " clip-rule="nonzero"/></clipPath><clipPath id="58733958ac"><path d="M 105 113.078125 L 105.988281 113.078125 L 105.988281 211.992188 L 105 211.992188 Z M 105 113.078125 " clip-rule="nonzero"/></clipPath><clipPath id="93c0ddf362"><path d="M 225 111 L 270 111 L 270 215.035156 L 225 215.035156 Z M 225 111 " clip-rule="nonzero"/></clipPath></defs><rect x="-37.5" width="450" fill="#ffffff" y="-37.499999" height="449.999989" fill-opacity="1"/><rect x="-37.5" width="450" fill="#dddffb" y="-37.499999" height="449.999989" fill-opacity="1"/><g clip-path="url(#2e6b4d52bc)"><path fill="#cb1a5e" d="M 222.179688 179.410156 C 222.179688 209.300781 199.625 233.917969 170.605469 237.175781 C 170.328125 237.207031 170.046875 237.238281 169.769531 237.261719 C 169.621094 237.28125 169.472656 237.292969 169.324219 237.304688 C 168.160156 237.410156 166.984375 237.480469 165.800781 237.519531 C 165.328125 237.53125 164.855469 237.539062 164.382812 237.542969 C 164.269531 237.542969 164.160156 237.542969 164.050781 237.542969 C 163.929688 237.542969 163.808594 237.542969 163.6875 237.542969 C 163.222656 237.539062 162.757812 237.53125 162.296875 237.515625 C 160.960938 237.476562 159.636719 237.390625 158.324219 237.261719 C 158.097656 237.242188 157.867188 237.21875 157.640625 237.191406 C 157.589844 237.1875 157.539062 237.183594 157.488281 237.175781 C 128.472656 233.917969 105.917969 209.300781 105.917969 179.410156 C 105.917969 177.390625 106.019531 175.390625 106.222656 173.421875 C 109.222656 144.132812 133.964844 121.28125 164.050781 121.28125 C 194.132812 121.28125 218.878906 144.132812 221.875 173.421875 C 222.078125 175.390625 222.179688 177.390625 222.179688 179.410156 " fill-opacity="1" fill-rule="nonzero"/></g><path fill="#e73c7e" d="M 221.875 173.421875 C 219.078125 200.839844 197.21875 222.617188 169.769531 225.296875 C 169.621094 225.3125 169.472656 225.324219 169.324219 225.339844 C 167.585938 225.496094 165.828125 225.574219 164.050781 225.574219 C 162.117188 225.574219 160.210938 225.480469 158.324219 225.296875 C 158.097656 225.273438 157.867188 225.25 157.640625 225.226562 C 130.515625 222.253906 109 200.609375 106.222656 173.421875 C 109.222656 144.132812 133.964844 121.28125 164.050781 121.28125 C 194.132812 121.28125 218.878906 144.132812 221.875 173.421875 " fill-opacity="1" fill-rule="nonzero"/><g clip-path="url(#48006eb254)"><path fill="#1e214a" d="M 165.800781 237.519531 C 165.328125 237.53125 164.855469 237.539062 164.382812 237.542969 C 164.269531 237.542969 164.160156 237.542969 164.050781 237.542969 C 163.929688 237.542969 163.808594 237.542969 163.6875 237.542969 C 163.222656 237.539062 162.757812 237.53125 162.296875 237.515625 L 163.878906 149.652344 C 163.890625 148.949219 164.203125 148.949219 164.214844 149.652344 L 165.800781 237.519531 " fill-opacity="1" fill-rule="nonzero"/></g><path fill="#1e214a" d="M 111.246094 173.753906 C 111.246094 170.132812 114.179688 167.199219 117.800781 167.199219 C 121.421875 167.199219 124.355469 170.132812 124.355469 173.753906 C 124.355469 177.375 121.421875 180.308594 117.800781 180.308594 C 114.179688 180.308594 111.246094 177.375 111.246094 173.753906 " fill-opacity="1" fill-rule="nonzero"/><path fill="#1e214a" d="M 121.875 195.558594 C 121.875 193.089844 123.878906 191.085938 126.347656 191.085938 C 128.816406 191.085938 130.816406 193.089844 130.816406 195.558594 C 130.816406 198.027344 128.816406 200.03125 126.347656 200.03125 C 123.878906 200.03125 121.875 198.027344 121.875 195.558594 " fill-opacity="1" fill-rule="nonzero"/><path fill="#1e214a" d="M 123.957031 154.058594 C 123.957031 151.589844 125.960938 149.585938 128.429688 149.585938 C 130.898438 149.585938 132.902344 151.589844 132.902344 154.058594 C 132.902344 156.527344 130.898438 158.53125 128.429688 158.53125 C 125.960938 158.53125 123.957031 156.527344 123.957031 154.058594 " fill-opacity="1" fill-rule="nonzero"/><path fill="#1e214a" d="M 132.992188 173.753906 C 132.992188 167.929688 137.710938 163.210938 143.535156 163.210938 C 149.359375 163.210938 154.078125 167.929688 154.078125 173.753906 C 154.078125 179.578125 149.359375 184.296875 143.535156 184.296875 C 137.710938 184.296875 132.992188 179.578125 132.992188 173.753906 " fill-opacity="1" fill-rule="nonzero"/><path fill="#1e214a" d="M 137.347656 209.328125 C 137.347656 204.734375 141.070312 201.007812 145.667969 201.007812 C 150.261719 201.007812 153.988281 204.734375 153.988281 209.328125 C 153.988281 213.925781 150.261719 217.648438 145.667969 217.648438 C 141.070312 217.648438 137.347656 213.925781 137.347656 209.328125 " fill-opacity="1" fill-rule="nonzero"/><path fill="#1e214a" d="M 216.851562 173.753906 C 216.851562 170.132812 213.917969 167.199219 210.296875 167.199219 C 206.675781 167.199219 203.742188 170.132812 203.742188 173.753906 C 203.742188 177.375 206.675781 180.308594 210.296875 180.308594 C 213.917969 180.308594 216.851562 177.375 216.851562 173.753906 " fill-opacity="1" fill-rule="nonzero"/><path fill="#1e214a" d="M 206.222656 195.558594 C 206.222656 193.089844 204.222656 191.085938 201.75 191.085938 C 199.28125 191.085938 197.28125 193.089844 197.28125 195.558594 C 197.28125 198.027344 199.28125 200.03125 201.75 200.03125 C 204.222656 200.03125 206.222656 198.027344 206.222656 195.558594 " fill-opacity="1" fill-rule="nonzero"/><path fill="#1e214a" d="M 204.140625 154.058594 C 204.140625 151.589844 202.140625 149.585938 199.667969 149.585938 C 197.199219 149.585938 195.195312 151.589844 195.195312 154.058594 C 195.195312 156.527344 197.199219 158.53125 199.667969 158.53125 C 202.140625 158.53125 204.140625 156.527344 204.140625 154.058594 " fill-opacity="1" fill-rule="nonzero"/><path fill="#1e214a" d="M 195.105469 173.753906 C 195.105469 167.929688 190.386719 163.210938 184.5625 163.210938 C 178.742188 163.210938 174.019531 167.929688 174.019531 173.753906 C 174.019531 179.578125 178.742188 184.296875 184.5625 184.296875 C 190.386719 184.296875 195.105469 179.578125 195.105469 173.753906 " fill-opacity="1" fill-rule="nonzero"/><path fill="#1e214a" d="M 190.753906 209.328125 C 190.753906 204.734375 187.027344 201.007812 182.433594 201.007812 C 177.835938 201.007812 174.109375 204.734375 174.109375 209.328125 C 174.109375 213.925781 177.835938 217.648438 182.433594 217.648438 C 187.027344 217.648438 190.753906 213.925781 190.753906 209.328125 " fill-opacity="1" fill-rule="nonzero"/><path fill="#1e214a" d="M 175.984375 116.917969 C 175.503906 116.917969 175.0625 116.601562 174.929688 116.117188 C 174.296875 113.828125 174.386719 111.183594 175.199219 108.257812 C 175.921875 105.648438 177.21875 102.890625 178.941406 100.28125 C 180.628906 97.730469 182.667969 95.410156 184.839844 93.566406 C 187.148438 91.613281 189.554688 90.25 191.796875 89.632812 C 199.359375 87.542969 207.210938 91.992188 209.296875 99.554688 C 210.121094 102.539062 209.734375 105.667969 208.207031 108.363281 C 206.679688 111.058594 204.191406 112.996094 201.207031 113.824219 C 200.363281 114.054688 199.515625 114.167969 198.679688 114.167969 C 194.515625 114.167969 190.683594 111.402344 189.523438 107.199219 C 188.964844 105.183594 189.226562 103.074219 190.257812 101.257812 C 191.289062 99.441406 192.964844 98.136719 194.976562 97.582031 C 198.414062 96.628906 201.988281 98.65625 202.9375 102.097656 C 203.730469 104.964844 202.042969 107.941406 199.171875 108.734375 C 198.769531 108.84375 198.367188 108.898438 197.96875 108.898438 C 195.976562 108.898438 194.148438 107.578125 193.59375 105.570312 C 193.320312 104.578125 193.449219 103.542969 193.953125 102.648438 C 194.460938 101.753906 195.285156 101.109375 196.277344 100.835938 C 197.125 100.601562 198.015625 100.710938 198.78125 101.148438 C 199.546875 101.582031 200.097656 102.289062 200.332031 103.136719 C 200.496094 103.71875 200.152344 104.320312 199.570312 104.484375 C 198.988281 104.644531 198.382812 104.300781 198.222656 103.71875 C 198.144531 103.433594 197.960938 103.195312 197.703125 103.050781 C 197.445312 102.902344 197.144531 102.867188 196.859375 102.945312 C 196.433594 103.0625 196.078125 103.339844 195.859375 103.726562 C 195.640625 104.113281 195.582031 104.558594 195.703125 104.988281 C 196.046875 106.234375 197.339844 106.96875 198.589844 106.625 C 200.296875 106.15625 201.300781 104.382812 200.828125 102.679688 C 200.199219 100.402344 197.835938 99.0625 195.558594 99.691406 C 194.109375 100.089844 192.902344 101.03125 192.160156 102.339844 C 191.417969 103.644531 191.230469 105.164062 191.632812 106.613281 C 192.703125 110.5 196.738281 112.785156 200.625 111.714844 C 203.046875 111.042969 205.0625 109.472656 206.304688 107.285156 C 207.542969 105.097656 207.859375 102.558594 207.1875 100.136719 C 205.421875 93.738281 198.78125 89.972656 192.382812 91.738281 C 188.484375 92.816406 184.035156 96.550781 180.765625 101.488281 C 177.40625 106.570312 176.011719 111.820312 177.039062 115.535156 C 177.199219 116.117188 176.855469 116.71875 176.273438 116.878906 C 176.175781 116.90625 176.078125 116.917969 175.984375 116.917969 " fill-opacity="1" fill-rule="nonzero"/><path fill="#1e214a" d="M 152.117188 116.917969 C 152.019531 116.917969 151.921875 116.90625 151.824219 116.878906 C 151.242188 116.71875 150.898438 116.117188 151.0625 115.535156 C 152.085938 111.820312 150.695312 106.570312 147.332031 101.488281 C 144.066406 96.550781 139.617188 92.816406 135.71875 91.738281 C 129.320312 89.972656 122.675781 93.738281 120.910156 100.136719 C 120.238281 102.558594 120.554688 105.097656 121.792969 107.285156 C 123.035156 109.472656 125.050781 111.042969 127.472656 111.714844 C 129.355469 112.234375 131.328125 111.988281 133.027344 111.027344 C 134.726562 110.0625 135.945312 108.496094 136.46875 106.613281 C 136.867188 105.164062 136.679688 103.644531 135.9375 102.339844 C 135.195312 101.03125 133.988281 100.089844 132.539062 99.691406 C 130.261719 99.0625 127.898438 100.402344 127.269531 102.679688 C 127.042969 103.503906 127.148438 104.371094 127.570312 105.117188 C 127.992188 105.863281 128.683594 106.398438 129.507812 106.625 C 130.757812 106.96875 132.050781 106.234375 132.398438 104.988281 C 132.640625 104.105469 132.121094 103.1875 131.238281 102.945312 C 130.953125 102.867188 130.65625 102.902344 130.398438 103.050781 C 130.140625 103.195312 129.953125 103.433594 129.875 103.71875 C 129.714844 104.300781 129.113281 104.644531 128.527344 104.484375 C 127.945312 104.320312 127.605469 103.71875 127.765625 103.136719 C 128 102.289062 128.550781 101.582031 129.316406 101.148438 C 130.082031 100.710938 130.972656 100.601562 131.820312 100.835938 C 132.8125 101.109375 133.636719 101.753906 134.144531 102.648438 C 134.652344 103.542969 134.777344 104.578125 134.503906 105.570312 C 134.183594 106.738281 133.425781 107.710938 132.371094 108.308594 C 131.316406 108.90625 130.09375 109.058594 128.925781 108.734375 C 127.535156 108.351562 126.378906 107.449219 125.667969 106.195312 C 124.957031 104.941406 124.777344 103.484375 125.160156 102.097656 C 126.109375 98.65625 129.683594 96.628906 133.121094 97.582031 C 135.136719 98.136719 136.8125 99.441406 137.839844 101.257812 C 138.871094 103.074219 139.132812 105.183594 138.574219 107.199219 C 137.179688 112.246094 131.941406 115.214844 126.890625 113.824219 C 123.90625 112.996094 121.417969 111.058594 119.890625 108.363281 C 118.363281 105.667969 117.976562 102.539062 118.800781 99.554688 C 120.890625 91.992188 128.738281 87.542969 136.300781 89.632812 C 138.546875 90.25 140.949219 91.613281 143.257812 93.566406 C 145.429688 95.410156 147.46875 97.730469 149.15625 100.28125 C 150.882812 102.890625 152.175781 105.648438 152.898438 108.257812 C 153.710938 111.183594 153.800781 113.828125 153.167969 116.117188 C 153.035156 116.601562 152.59375 116.917969 152.117188 116.917969 " fill-opacity="1" fill-rule="nonzero"/><path fill="#1e214a" d="M 131.089844 131.539062 C 131.089844 121.753906 145.847656 108.066406 164.050781 108.066406 C 182.253906 108.066406 197.007812 121.746094 197.007812 131.53125 C 197.007812 141.316406 182.253906 149.652344 164.050781 149.652344 C 145.847656 149.652344 131.089844 141.324219 131.089844 131.539062 " fill-opacity="1" fill-rule="nonzero"/><path fill="#1e214a" d="M 90.765625 197.203125 C 88.546875 197.203125 87.066406 196.460938 85.589844 194.984375 L 56.011719 165.40625 C 53.054688 162.449219 53.054688 158.011719 56.011719 155.054688 L 85.589844 125.476562 C 88.546875 122.519531 92.984375 122.519531 95.941406 125.476562 C 98.898438 128.433594 98.898438 132.871094 95.941406 135.828125 L 71.539062 160.230469 L 95.941406 184.632812 C 98.898438 187.589844 98.898438 192.027344 95.941406 194.984375 C 94.460938 196.460938 92.984375 197.203125 90.765625 197.203125 Z M 90.765625 197.203125 " fill-opacity="1" fill-rule="nonzero"/><g clip-path="url(#58733958ac)"><path fill="#1e214a" d="M 112.949219 211.992188 C 112.207031 211.992188 111.46875 211.992188 110.730469 211.25 C 107.03125 209.773438 104.8125 206.074219 106.292969 201.636719 L 135.871094 112.90625 C 137.347656 109.207031 141.046875 106.992188 145.484375 108.46875 C 149.179688 109.949219 151.398438 113.644531 149.917969 118.082031 L 120.34375 206.8125 C 118.863281 209.773438 115.90625 211.992188 112.949219 211.992188 Z M 112.949219 211.992188 " fill-opacity="1" fill-rule="nonzero"/></g><path fill="#1e214a" d="M 284.234375 200.246094 C 282.015625 200.246094 280.539062 199.507812 279.058594 198.027344 C 276.101562 195.070312 276.101562 190.632812 279.058594 187.675781 L 303.460938 163.273438 L 279.058594 138.871094 C 276.101562 135.914062 276.101562 131.480469 279.058594 128.519531 C 282.015625 125.5625 286.453125 125.5625 289.410156 128.519531 L 318.988281 158.097656 C 321.945312 161.054688 321.945312 165.492188 318.988281 168.449219 L 289.410156 198.027344 C 287.933594 199.507812 286.453125 200.246094 284.234375 200.246094 Z M 284.234375 200.246094 " fill-opacity="1" fill-rule="nonzero"/><g clip-path="url(#93c0ddf362)"><path fill="#1e214a" d="M 232.472656 215.035156 C 231.734375 215.035156 230.996094 215.035156 230.257812 214.296875 C 226.558594 212.816406 224.339844 209.121094 225.820312 204.683594 L 255.398438 115.949219 C 256.875 112.253906 260.574219 110.035156 265.007812 111.515625 C 268.707031 112.992188 270.925781 116.691406 269.445312 121.125 L 239.867188 209.859375 C 238.390625 212.816406 235.433594 215.035156 232.472656 215.035156 Z M 232.472656 215.035156 " fill-opacity="1" fill-rule="nonzero"/></g><g fill="#1e214a" fill-opacity="1"><g transform="translate(55.279057, 275.507731)"><g><path d="M 10.671875 0 L 3.375 0 L 3.375 -27.234375 L 10.625 -27.234375 L 10.625 -25.71875 C 13.132812 -27.164062 15.273438 -27.890625 17.046875 -27.890625 C 19.992188 -27.890625 22.265625 -27.035156 23.859375 -25.328125 C 27.203125 -27.035156 30.253906 -27.890625 33.015625 -27.890625 C 36.609375 -27.890625 39.101562 -26.84375 40.5 -24.75 C 41.90625 -22.664062 42.609375 -19.335938 42.609375 -14.765625 L 42.609375 0 L 35.3125 0 L 35.3125 -14.546875 C 35.3125 -16.867188 35.054688 -18.582031 34.546875 -19.6875 C 34.035156 -20.800781 33.015625 -21.359375 31.484375 -21.359375 C 30.328125 -21.359375 28.910156 -21.101562 27.234375 -20.59375 L 26.421875 -20.328125 C 26.566406 -17.597656 26.640625 -15.523438 26.640625 -14.109375 L 26.640625 0 L 19.34375 0 L 19.34375 -14 C 19.34375 -16.6875 19.101562 -18.582031 18.625 -19.6875 C 18.15625 -20.800781 17.125 -21.359375 15.53125 -21.359375 C 14.113281 -21.359375 12.710938 -21.101562 11.328125 -20.59375 L 10.671875 -20.375 Z M 10.671875 0 "/></g></g></g><g fill="#1e214a" fill-opacity="1"><g transform="translate(100.995547, 275.507731)"><g><path d="M 3.375 0 L 3.375 -27.234375 L 10.671875 -27.234375 L 10.671875 0 Z M 3.375 -30.734375 L 3.375 -38.140625 L 10.671875 -38.140625 L 10.671875 -30.734375 Z M 3.375 -30.734375 "/></g></g></g><g fill="#1e214a" fill-opacity="1"><g transform="translate(115.053775, 275.507731)"><g><path d="M 13.5625 -27.890625 C 15.457031 -27.890625 17.875 -27.601562 20.8125 -27.03125 L 22.28125 -26.703125 L 22.0625 -20.921875 C 19.195312 -21.210938 17.070312 -21.359375 15.6875 -21.359375 C 13.1875 -21.359375 11.523438 -20.820312 10.703125 -19.75 C 9.890625 -18.675781 9.484375 -16.648438 9.484375 -13.671875 C 9.484375 -10.691406 9.890625 -8.648438 10.703125 -7.546875 C 11.523438 -6.441406 13.207031 -5.890625 15.75 -5.890625 L 22.0625 -6.3125 L 22.28125 -0.484375 C 18.394531 0.273438 15.4375 0.65625 13.40625 0.65625 C 9.375 0.65625 6.476562 -0.476562 4.71875 -2.75 C 2.957031 -5.019531 2.078125 -8.660156 2.078125 -13.671875 C 2.078125 -18.679688 2.984375 -22.300781 4.796875 -24.53125 C 6.609375 -26.769531 9.53125 -27.890625 13.5625 -27.890625 Z M 13.5625 -27.890625 "/></g></g></g><g fill="#1e214a" fill-opacity="1"><g transform="translate(139.355989, 275.507731)"><g><path d="M 24.25 -18.75 L 24.25 -7.40625 C 24.320312 -6.539062 24.46875 -5.929688 24.6875 -5.578125 C 24.90625 -5.234375 25.359375 -4.988281 26.046875 -4.84375 L 25.828125 0.65625 C 23.972656 0.65625 22.488281 0.523438 21.375 0.265625 C 20.269531 0.015625 19.15625 -0.488281 18.03125 -1.25 C 15.414062 0.0195312 12.75 0.65625 10.03125 0.65625 C 4.394531 0.65625 1.578125 -2.320312 1.578125 -8.28125 C 1.578125 -11.1875 2.359375 -13.25 3.921875 -14.46875 C 5.484375 -15.6875 7.878906 -16.40625 11.109375 -16.625 L 16.9375 -17.046875 L 16.9375 -18.75 C 16.9375 -19.875 16.679688 -20.644531 16.171875 -21.0625 C 15.671875 -21.476562 14.859375 -21.6875 13.734375 -21.6875 L 3.484375 -21.25 L 3.265625 -26.3125 C 7.148438 -27.363281 10.84375 -27.890625 14.34375 -27.890625 C 17.851562 -27.890625 20.378906 -27.160156 21.921875 -25.703125 C 23.472656 -24.253906 24.25 -21.9375 24.25 -18.75 Z M 11.984375 -11.546875 C 9.953125 -11.367188 8.9375 -10.28125 8.9375 -8.28125 C 8.9375 -6.28125 9.828125 -5.28125 11.609375 -5.28125 C 12.984375 -5.28125 14.488281 -5.5 16.125 -5.9375 L 16.9375 -6.15625 L 16.9375 -11.984375 Z M 11.984375 -11.546875 "/></g></g></g><g fill="#1e214a" fill-opacity="1"><g transform="translate(167.199998, 275.507731)"><g><path d="M 2.234375 -20.703125 L 2.234375 -27.234375 L 22.453125 -27.234375 L 22.453125 -20.703125 L 11 -6.53125 L 22.453125 -6.53125 L 22.453125 0 L 2.234375 0 L 2.234375 -6.53125 L 13.671875 -20.703125 Z M 2.234375 -20.703125 "/></g></g></g><g fill="#1e214a" fill-opacity="1"><g transform="translate(191.938128, 275.507731)"><g><path d="M 4.84375 -24.15625 C 6.769531 -26.644531 9.984375 -27.890625 14.484375 -27.890625 C 18.992188 -27.890625 22.210938 -26.644531 24.140625 -24.15625 C 26.066406 -21.675781 27.03125 -18.179688 27.03125 -13.671875 C 27.03125 -4.117188 22.851562 0.65625 14.5 0.65625 C 6.144531 0.65625 1.96875 -4.117188 1.96875 -13.671875 C 1.96875 -18.179688 2.925781 -21.675781 4.84375 -24.15625 Z M 10.484375 -7.515625 C 11.234375 -6.210938 12.566406 -5.5625 14.484375 -5.5625 C 16.410156 -5.5625 17.742188 -6.210938 18.484375 -7.515625 C 19.234375 -8.828125 19.609375 -10.878906 19.609375 -13.671875 C 19.609375 -16.472656 19.234375 -18.507812 18.484375 -19.78125 C 17.742188 -21.050781 16.410156 -21.6875 14.484375 -21.6875 C 12.566406 -21.6875 11.234375 -21.050781 10.484375 -19.78125 C 9.742188 -18.507812 9.375 -16.472656 9.375 -13.671875 C 9.375 -10.878906 9.742188 -8.828125 10.484375 -7.515625 Z M 10.484375 -7.515625 "/></g></g></g><g fill="#1e214a" fill-opacity="1"><g transform="translate(220.436019, 275.507731)"><g><path d="M 0.875 -27.234375 L 8.0625 -27.234375 L 13.015625 -6.21875 L 14.28125 -6.21875 L 19.234375 -27.234375 L 26.421875 -27.234375 L 16.828125 11.4375 L 9.703125 11.4375 L 12.6875 0 L 7.578125 0 Z M 0.875 -27.234375 "/></g></g></g><g fill="#1e214a" fill-opacity="1"><g transform="translate(247.244735, 275.507731)"><g><path d="M 4.84375 -24.15625 C 6.769531 -26.644531 9.984375 -27.890625 14.484375 -27.890625 C 18.992188 -27.890625 22.210938 -26.644531 24.140625 -24.15625 C 26.066406 -21.675781 27.03125 -18.179688 27.03125 -13.671875 C 27.03125 -4.117188 22.851562 0.65625 14.5 0.65625 C 6.144531 0.65625 1.96875 -4.117188 1.96875 -13.671875 C 1.96875 -18.179688 2.925781 -21.675781 4.84375 -24.15625 Z M 10.484375 -7.515625 C 11.234375 -6.210938 12.566406 -5.5625 14.484375 -5.5625 C 16.410156 -5.5625 17.742188 -6.210938 18.484375 -7.515625 C 19.234375 -8.828125 19.609375 -10.878906 19.609375 -13.671875 C 19.609375 -16.472656 19.234375 -18.507812 18.484375 -19.78125 C 17.742188 -21.050781 16.410156 -21.6875 14.484375 -21.6875 C 12.566406 -21.6875 11.234375 -21.050781 10.484375 -19.78125 C 9.742188 -18.507812 9.375 -16.472656 9.375 -13.671875 C 9.375 -10.878906 9.742188 -8.828125 10.484375 -7.515625 Z M 10.484375 -7.515625 "/></g></g></g><g fill="#1e214a" fill-opacity="1"><g transform="translate(276.233024, 275.507731)"><g><path d="M 3.703125 0 L 3.703125 -38.140625 L 11 -38.140625 L 11 0 Z M 3.703125 0 "/></g></g></g><g fill="#1e214a" fill-opacity="1"><g transform="translate(290.945121, 275.507731)"><g><path d="M 3.703125 0 L 3.703125 -38.140625 L 11 -38.140625 L 11 0 Z M 3.703125 0 "/></g></g></g><g fill="#1e214a" fill-opacity="1"><g transform="translate(305.657219, 275.507731)"><g><path d="M 3.375 0 L 3.375 -27.234375 L 10.671875 -27.234375 L 10.671875 0 Z M 3.375 -30.734375 L 3.375 -38.140625 L 10.671875 -38.140625 L 10.671875 -30.734375 Z M 3.375 -30.734375 "/></g></g></g></svg>